<?xml version="1.0" standalone="no"?>
<svg
  width="600"
  height="600"
  viewBox="0 0 600 600"
  xmlns="http://www.w3.org/2000/svg"
>
  <g transform="translate(300,300)">
    <path d="M103.2,-160.1C146.5,-132.7,203.4,-125.8,230.8,-96.4C258.2,-67,256.3,-15.2,242.2,29.9C228,75,201.7,113.5,169.2,141.1C136.7,168.8,98.1,185.6,55.2,206.7C12.4,227.7,-34.7,253,-82.1,251.8C-129.5,250.6,-177.4,222.8,-193.6,180.8C-209.9,138.7,-194.5,82.2,-188.5,35.3C-182.5,-11.6,-185.9,-49,-175.1,-83C-164.3,-117.1,-139.5,-147.7,-107.9,-180.5C-76.4,-213.2,-38.2,-248.1,-4.1,-241.7C29.9,-235.2,59.8,-187.4,103.2,-160.1Z" fill="#fcb900" />
  </g>
</svg>
    